<svg width="202" height="258" viewBox="0 0 202 258" fill="none" xmlns="http://www.w3.org/2000/svg">
<path d="M44.9658 139.877L45.9658 139.871L45.9601 138.871L45.8859 125.721L45.8803 124.721L44.8803 124.727L31.7304 124.801L30.7304 124.807L30.7361 125.807L30.8103 138.957L30.8159 139.957L31.8159 139.951L36.1821 139.926C37.1912 156.099 44.1099 171.39 55.6941 182.844C63.611 190.672 73.2954 196.301 83.7992 199.344L56.5834 199.498C55.8889 197.286 53.8169 195.688 51.3779 195.702C48.3828 195.719 45.9684 198.16 45.9854 201.155C46.0023 204.151 48.444 206.565 51.4391 206.548C53.6989 206.535 55.628 205.142 56.4318 203.172L95.2493 202.953L95.2653 205.779L95.2709 206.779L96.2709 206.773L109.421 206.699L110.421 206.693L110.415 205.693L110.399 202.868L148.021 202.655C148.847 204.616 150.792 205.987 153.052 205.974C156.047 205.958 158.461 203.516 158.444 200.521C158.427 197.526 155.986 195.111 152.991 195.128C150.551 195.142 148.498 196.764 147.828 198.983L121.33 199.132C131.798 195.971 141.419 190.233 149.247 182.316C160.701 170.732 167.446 155.363 168.273 139.181L171.922 139.16L172.922 139.154L172.916 138.154L172.842 125.005L172.836 124.005L171.836 124.01L158.686 124.084L157.686 124.09L157.692 125.09L157.766 138.24L157.772 139.24L158.772 139.234L162.164 139.215C161.335 153.779 155.227 167.595 144.91 178.028C135.559 187.486 123.39 193.517 110.356 195.303L110.341 192.543L110.335 191.543L109.335 191.549L96.1854 191.623L95.1854 191.629L95.191 192.629L95.207 195.449C81.9745 193.896 69.5549 187.973 59.9821 178.508C49.5484 168.191 43.2839 154.445 42.2915 139.892L44.9658 139.877ZM87.4788 107.391L86.7494 107.395L86.5305 108.091C84.0202 116.07 81.9684 121.427 80.455 125.378C80.3005 125.781 80.1517 126.169 80.0085 126.545C78.4766 130.56 77.5338 133.188 77.4492 135.877C77.3353 139.499 78.7853 143.131 81.8111 150.433C81.9809 150.843 82.1561 151.265 82.3366 151.7C85.4055 159.096 90.0225 170.224 96.4354 188.406L96.6722 189.078L97.3841 189.074L101.431 189.051L102.105 189.047L102.431 189.045L103.105 189.041L106.589 189.022L107.311 189.018L107.534 188.332C113.596 169.728 118.162 158.738 121.231 151.534C121.458 150.999 121.678 150.485 121.89 149.988C123.104 147.149 124.061 144.909 124.743 143.013C125.549 140.771 126 138.933 126.042 137.05C126.104 134.231 125.242 131.444 123.607 127.192C123.106 125.89 122.531 124.445 121.88 122.809C120.381 119.046 118.48 114.272 116.158 107.892L115.917 107.231L115.213 107.234L87.4788 107.391ZM102.63 144.164L101.992 144.313L101.343 144.207C99.7802 143.954 98.5824 142.601 98.5731 140.965C98.5628 139.141 100.034 137.653 101.858 137.643C103.683 137.632 105.17 139.103 105.18 140.928C105.189 142.499 104.099 143.822 102.63 144.164ZM116.025 106.002L117.025 105.996L117.02 104.996L116.964 95.1939L116.959 94.1939L115.959 94.1995L87.268 94.3615L86.268 94.3671L86.2737 95.3671L86.329 105.17L86.3347 106.17L87.3346 106.164L116.025 106.002Z" fill="white" stroke="black" stroke-width="2"/>
<rect x="92.5" y="65.5" width="18" height="28" rx="9" stroke="black" stroke-width="3"/>
<rect x="92.5" y="18.5" width="18" height="28" rx="9" stroke="black" stroke-width="3"/>
<rect x="100" y="41" width="4" height="31" rx="2" fill="black"/>
<rect x="100" y="-6" width="4" height="31" rx="2" fill="black"/>
</svg>
